<svg width="91" height="36" viewBox="0 0 91 36" fill="none" xmlns="http://www.w3.org/2000/svg">
<path d="M8.77992 8.0021H2.5925C0.812007 8.0021 0.441406 7.6843 0.441406 6.16863V2.15943C0.441406 0.651902 0.812007 0.325951 2.5925 0.325951H7.97427C8.62685 0.325951 8.66713 0.725242 8.66713 1.54012C8.66713 2.355 8.62685 2.75429 7.97427 2.75429H3.74459C3.50289 2.75429 3.36593 2.89282 3.36593 3.12098V5.19892C3.36593 5.42709 3.50289 5.56562 3.74459 5.56562H8.77992C9.4325 5.56562 9.47278 5.96491 9.47278 6.77978C9.47278 7.60281 9.4325 8.0021 8.77992 8.0021ZM9.74671 15.3197H4.58247C2.25413 15.3197 0.723385 14.0159 0.723385 12.1661C0.723385 10.2756 2.24607 8.97181 4.58247 8.97181H9.74671C12.075 8.97181 13.6219 10.2756 13.6219 12.1661C13.6219 14.024 12.0831 15.3197 9.74671 15.3197ZM4.58247 12.8751H9.74671C10.3107 12.8751 10.641 12.5654 10.641 12.1661C10.641 11.7505 10.3187 11.4164 9.74671 11.4164H4.58247C4.01851 11.4164 3.7043 11.7424 3.7043 12.1661C3.71236 12.5654 4.01851 12.8751 4.58247 12.8751ZM14.4759 5.7123H13.1788V7.87172C13.1788 8.56437 12.5745 8.61326 11.7206 8.61326C10.8666 8.61326 10.2462 8.57252 10.2462 7.87172V0.741539C10.2462 0.0488932 10.8666 0 11.7206 0C12.5745 0 13.1788 0.0407444 13.1788 0.741539V2.81133H14.4759C15.1446 2.81133 15.209 3.45508 15.209 4.26996C15.201 5.12558 15.1446 5.7123 14.4759 5.7123Z" fill="#FF760E"/>
<path d="M28.9471 9.3563H16.0163C15.3154 9.3563 15.2188 8.89182 15.2188 8.0362C15.2188 7.23762 15.3154 6.7324 16.0163 6.7324H28.9471C29.648 6.7324 29.7447 7.23762 29.7447 8.0362C29.7447 8.89182 29.6561 9.3563 28.9471 9.3563ZM26.0065 5.56712V3.51363C26.0065 3.23657 25.8534 3.08174 25.6117 3.08174H16.8301C16.113 3.08174 15.96 2.61726 15.96 1.72904C15.96 0.88157 16.105 0.34375 16.8301 0.34375H26.7235C28.504 0.34375 28.9471 0.800083 28.9471 2.45429V5.56712C28.9471 6.25977 28.3429 6.30866 27.4889 6.30866C26.6268 6.30051 26.0065 6.25977 26.0065 5.56712ZM18.9812 10.5949V12.1106C18.9812 12.3225 19.1342 12.461 19.3759 12.461H28.4073C29.1243 12.461 29.2774 12.9499 29.2774 13.8137C29.2774 14.6612 29.1324 15.1664 28.4073 15.1664H18.2802C16.5159 15.1664 16.0405 14.8812 16.0405 13.2677V10.5949C16.0405 9.90227 16.6448 9.85338 17.4987 9.85338C18.3608 9.86153 18.9812 9.90227 18.9812 10.5949Z" fill="#FF760E"/>
<path d="M31.3086 12.9012V1.94103C31.3086 0.572032 31.5261 0.335717 32.928 0.335717H37.6974C39.1073 0.335717 39.3168 0.572032 39.3168 1.94103V12.9012C39.3168 14.2701 39.0993 14.5065 37.6974 14.5065H32.928C31.5261 14.5065 31.3086 14.2701 31.3086 12.9012ZM36.5534 11.4751V3.37522C36.5534 3.18779 36.4487 3.06556 36.2795 3.06556H34.362C34.1928 3.06556 34.0881 3.18779 34.0881 3.37522V11.4751C34.0881 11.6625 34.1928 11.7848 34.362 11.7848H36.2795C36.4567 11.7848 36.5534 11.6625 36.5534 11.4751ZM41.1215 14.5146V0.832793C41.1215 0.10755 41.7418 0.00976562 42.5958 0.00976562C43.4498 0.00976562 44.054 0.10755 44.054 0.832793V5.46946H45.3511C46.0198 5.46946 46.0843 6.11321 46.0843 6.92809C46.0843 7.79186 46.0279 8.40302 45.3511 8.40302H44.054V14.5146C44.054 15.2399 43.4498 15.3376 42.5958 15.3376C41.7418 15.3376 41.1215 15.248 41.1215 14.5146Z" fill="#FF760E"/>
<path d="M53.1993 3.4715H53.7954V0.70906C53.7954 0.0490086 54.3272 0.073456 55.1328 0.073456C55.9385 0.073456 56.438 0.0490086 56.438 0.70906V8.51559C56.438 9.17564 55.9385 9.15119 55.1328 9.15119C54.3272 9.15119 53.7954 9.17564 53.7954 8.51559V6.03021H53.1993C52.877 6.03021 52.5789 5.87538 52.3936 5.58203C51.588 7.38291 49.8075 9.07786 47.8417 9.96607C47.2052 10.2431 46.8749 9.83569 46.5123 9.22453C46.1498 8.62152 46.037 8.07555 46.5848 7.83109C47.4791 7.4318 48.5668 6.65767 49.1307 5.98132H47.2213C46.6735 5.98132 46.6654 5.65537 46.6654 4.92198C46.6654 4.24563 46.6735 3.86264 47.2213 3.86264H50.2103C50.2828 3.60188 50.3472 3.32482 50.3795 3.03146C50.4117 2.8033 50.2909 2.64847 50.0894 2.64847H47.3019C46.6493 2.64847 46.6574 2.26548 46.6574 1.50764C46.6574 0.782399 46.6493 0.342365 47.3019 0.342365H51.0562C52.9253 0.342365 53.3121 1.24688 53.0381 3.27592C53.022 3.34926 53.022 3.43075 53.0059 3.50409C53.0784 3.4715 53.1348 3.4715 53.1993 3.4715ZM58.7985 15.3035C57.0181 14.9205 54.5366 13.6982 53.1429 12.5655C51.8538 13.853 49.7913 15.1405 47.9867 15.5072C47.3663 15.6295 47.0038 14.9776 46.7782 14.2116C46.5687 13.4863 46.5768 13.1848 47.2294 13.0056C49.2032 12.484 51.4349 10.4876 52.2566 8.94747C52.5145 8.48299 52.9656 8.64597 53.7552 8.89043C54.5769 9.15119 55.1409 9.4527 54.8992 10.0068L54.6494 10.5202C55.8015 11.4736 57.8479 12.4596 59.5156 12.8263C60.152 12.9648 60.1762 13.3886 59.9667 14.1301C59.7653 14.8879 59.435 15.4421 58.7985 15.3035ZM57.0906 8.98007V0.635721C57.0906 -0.0243299 57.6384 0.00011627 58.4602 0.00011627C59.2819 0.00011627 59.8137 -0.0243299 59.8137 0.635721V8.98007C59.8137 9.64012 59.2819 9.61567 58.4602 9.61567C57.6384 9.61567 57.0906 9.64012 57.0906 8.98007Z" fill="#FF760E"/>
<path d="M35.7041 23.1406H34.0444C33.8752 23.1406 33.7383 23.2792 33.7383 23.4503V26.2453C33.7383 26.4165 33.8752 26.555 34.0444 26.555H35.7041C36.6225 26.555 37.2993 25.8134 37.2993 24.8437C37.2993 23.8822 36.6306 23.1406 35.7041 23.1406Z" fill="#FF760E"/>
<path d="M40.2343 18.0156H3.19844C1.43406 18.0156 0 19.4661 0 21.2507V32.7649C0 34.5495 1.43406 36 3.19844 36H40.2424C42.0068 36 43.4408 34.5495 43.4408 32.7649V21.2507C43.4328 19.4661 42.0068 18.0156 40.2343 18.0156ZM16.3064 32.9605C16.3064 33.3027 16.0325 33.5798 15.6941 33.5798H13.9217C13.5833 33.5798 13.3094 33.3027 13.3094 32.9605V26.963C13.3094 26.6452 12.8985 26.5311 12.7374 26.8L9.99816 31.347C9.94177 31.4367 9.84509 31.4937 9.74035 31.4937C9.63562 31.4937 9.53894 31.4367 9.48254 31.347L6.74332 26.8C6.58219 26.5311 6.17131 26.6452 6.17131 26.963V32.9605C6.17131 33.3027 5.89738 33.5798 5.55901 33.5798H3.78657C3.4482 33.5798 3.17427 33.3027 3.17427 32.9605V21.2262C3.17427 20.7129 3.58516 20.2891 4.10078 20.2891H5.66374C5.98601 20.2891 6.2841 20.4603 6.45328 20.7373L9.4906 25.757C9.61145 25.9525 9.89343 25.9525 10.0143 25.757L13.0516 20.7373C13.2208 20.4603 13.5189 20.2891 13.8411 20.2891H15.3799C15.8875 20.2891 16.3064 20.7047 16.3064 21.2262V32.9605ZM29.4547 21.1122L25.644 32.9442C25.5231 33.3272 25.1686 33.588 24.7658 33.588H22.2763C21.8735 33.588 21.519 33.3272 21.3982 32.9442L17.5874 21.1122C17.4585 20.7129 17.7566 20.2973 18.1755 20.2973H20.1575C20.4314 20.2973 20.665 20.4766 20.7456 20.7373L23.227 29.0817C23.3156 29.375 23.7265 29.375 23.8151 29.0817L26.2965 20.7373C26.3771 20.4766 26.6107 20.2973 26.8847 20.2973H28.8666C29.2855 20.2973 29.5836 20.7047 29.4547 21.1122ZM35.7066 29.4076H34.0469C33.8777 29.4076 33.7408 29.5462 33.7408 29.7173V32.9605C33.7408 33.3027 33.4669 33.5798 33.1285 33.5798H31.356C31.0177 33.5798 30.7437 33.3027 30.7437 32.9605V21.2262C30.7437 20.7129 31.1546 20.2891 31.6702 20.2891H35.7227C38.3169 20.2891 40.323 22.3182 40.323 24.8443C40.3069 27.3786 38.3008 29.4076 35.7066 29.4076Z" fill="#FF760E"/>
<path d="M45.582 24.4423V23.7986C45.582 21.4191 47.3625 19.7242 49.9406 19.7242C52.5107 19.7242 54.2992 21.4273 54.2992 23.7986V24.4423C54.2992 26.8218 52.5187 28.5167 49.9406 28.5167C47.3706 28.5167 45.582 26.8136 45.582 24.4423ZM49.4975 30.0324V31.6214C49.4975 31.8496 49.6184 31.9881 49.8439 31.9881H58.6014C59.3184 31.9881 59.4715 32.477 59.4715 33.3571C59.4715 34.2046 59.3265 34.7098 58.6014 34.7098H48.6274C46.9275 34.7098 46.5569 34.3675 46.5569 32.7785V30.0405C46.5569 29.3479 47.1611 29.299 48.0151 29.299C48.8772 29.299 49.4975 29.3397 49.4975 30.0324ZM48.4824 23.7986V24.4423C48.4824 25.4283 49.0463 26.1047 49.9406 26.1047C50.8349 26.1047 51.3988 25.4283 51.3988 24.4423V23.7986C51.3988 22.8126 50.8349 22.1362 49.9406 22.1362C49.0463 22.1362 48.4824 22.8126 48.4824 23.7986ZM56.2005 29.8613V20.2865C56.2005 19.5938 56.8209 19.5449 57.6749 19.5449C58.5289 19.5449 59.1331 19.5857 59.1331 20.2865V29.8613C59.1331 30.5539 58.5289 30.6028 57.6749 30.6028C56.8209 30.5947 56.2005 30.5539 56.2005 29.8613Z" fill="#FF760E"/>
<path d="M68.485 25.7054H64.2795V26.5692C64.2795 26.7566 64.3842 26.8625 64.6018 26.8625H69.3793C70.0158 26.8625 70.056 27.3514 70.056 28.0604C70.056 28.7856 70.0158 29.2257 69.3793 29.2257H63.2886C61.782 29.2257 61.5 29.0056 61.5 27.653V21.4436C61.5 20.0909 61.782 19.8709 63.2886 19.8709H68.8073C69.4437 19.8709 69.484 20.3028 69.484 21.0361C69.484 21.7451 69.4437 22.234 68.8073 22.234H64.6018C64.3762 22.234 64.2795 22.34 64.2795 22.5274V23.3585H68.4931C69.1295 23.3585 69.1698 23.7904 69.1698 24.5238C69.1618 25.2409 69.1215 25.7054 68.485 25.7054ZM64.924 30.448V31.7192C64.924 31.8903 65.0449 31.9962 65.2463 31.9962H74.189C74.9061 31.9962 75.0592 32.5015 75.0592 33.3652C75.0592 34.2127 74.9141 34.7016 74.189 34.7016H63.9089C62.3621 34.7016 61.9995 34.4164 61.9995 33.0963V30.4398C61.9995 29.7472 62.6037 29.6983 63.4577 29.6983C64.3117 29.7146 64.924 29.7553 64.924 30.448ZM70.338 23.0489H71.8688V20.2865C71.8688 19.5938 72.4891 19.5449 73.3431 19.5449C74.1971 19.5449 74.8013 19.5857 74.8013 20.2865V30.0161C74.8013 30.7087 74.1971 30.7576 73.3431 30.7576C72.4891 30.7576 71.8688 30.7169 71.8688 30.0161V25.8276H70.338C69.6854 25.8276 69.629 25.2898 69.629 24.4423C69.621 23.6275 69.6854 23.0489 70.338 23.0489Z" fill="#FF760E"/>
<path d="M83.7354 27.5389C82.7767 26.9522 81.5118 25.8602 80.7384 25.0616C80.2066 25.9825 79.1996 26.8788 78.4503 27.5063C77.9186 27.9382 77.4513 27.767 76.8632 27.164C76.3314 26.6099 76.0092 25.9499 76.4603 25.5506C77.9589 24.3038 79.0223 22.8696 79.1432 20.2702C79.1754 19.5775 79.7796 19.602 80.6497 19.6346C81.5601 19.6672 82.1402 19.8138 82.0596 20.5309C82.0113 20.9791 81.9227 21.9244 81.8179 22.3399C82.5753 23.2771 84.0093 24.532 85.1533 25.2165C85.669 25.5098 85.6367 25.9825 85.1936 26.6995C84.7666 27.3922 84.2671 27.8648 83.7354 27.5389ZM80.3275 28.5086V29.1931H87.103V28.5086C87.103 27.8811 87.6992 27.9463 88.5613 27.9463C89.4153 27.9463 90.0034 27.8893 90.0034 28.5086V33.2838C90.0034 34.449 89.8423 34.7098 88.521 34.7098H78.9176C77.5963 34.7098 77.4352 34.5631 77.4352 33.3978V28.5086C77.4352 27.8811 78.0394 27.9463 78.8934 27.9463C79.7474 27.9463 80.3275 27.8811 80.3275 28.5086ZM87.103 32.2081V31.4258H80.3275V32.2081C80.3275 32.3466 80.4161 32.42 80.5531 32.42H86.8775C87.0144 32.42 87.103 32.3466 87.103 32.2081ZM87.0708 26.9277V20.2865C87.0708 19.5938 87.6912 19.5449 88.5452 19.5449C89.3991 19.5449 90.0034 19.5857 90.0034 20.2865V26.9277C90.0034 27.6204 89.3991 27.6692 88.5452 27.6692C87.6831 27.6692 87.0708 27.6204 87.0708 26.9277Z" fill="#FF760E"/>
</svg>
