<svg xmlns="http://www.w3.org/2000/svg" viewBox="0 0 194.93 38.86"><defs><style>.cls-1{fill:#bd1f36;}</style></defs><g id="레이어_2" data-name="레이어 2"><g id="레이어_1-2" data-name="레이어 1"><path class="cls-1" d="M22.22,27.46v11.4H16.06V27.46H0V22.09H38.29v5.37ZM12,18.75c-5.5,0-9.2-3.66-9.2-9.25S6.47.22,12,.22H26.32c5.5,0,9.19,3.7,9.19,9.28s-3.69,9.25-9.19,9.25Zm.66-13.16A3.75,3.75,0,0,0,8.85,9.5a3.65,3.65,0,0,0,3.78,3.88h13A3.65,3.65,0,0,0,29.44,9.5a3.68,3.68,0,0,0-3.78-3.91Z"/><path class="cls-1" d="M41.27,32.7V14h15.4V6.78H41.23V1.41H62.75V19.32H47.35v8H65.61V32.7ZM69,38.86V0H75V38.86Z"/><path class="cls-1" d="M101.73,23.41c0,6.12-4.4,10.34-11.22,10.34S79.29,29.53,79.29,23.41V10.91C79.29,4.8,83.69.57,90.51.57s11.22,4.23,11.22,10.34ZM95.66,11.57c0-3.47-1.72-5.63-5.15-5.63s-5.15,2.16-5.15,5.63V22.75c0,3.48,1.72,5.63,5.15,5.63s5.15-2.15,5.15-5.63Zm10.25,27.29V0H112V13.33h5.28v5.81H112V38.86Z"/><path class="cls-1" d="M117,32.21V26.84h4V7h-3.61V1.67h24.87V7h-3.88v19.8h4.54v5.37ZM132.31,7h-5.24v19.8h5.24Zm12.76,31.82V0h6.08V14.13h5.28v5.8h-5.28V38.86Z"/><path class="cls-1" d="M156.64,36.26V30.89h38.29v5.37Zm3.56-10.38V1h31.16V6.38H166.28v4.4h24.64v5.28H166.28v4.45h25.83v5.37Z"/></g></g></svg>